<?xml version="1.0" standalone="no"?>
<!DOCTYPE svg PUBLIC "-//W3C//DTD SVG 20010904//EN"
 "http://www.w3.org/TR/2001/REC-SVG-20010904/DTD/svg10.dtd">
<svg version="1.0" xmlns="http://www.w3.org/2000/svg"
 width="500.000000pt" height="500.000000pt" viewBox="0 0 500.000000 500.000000"
 preserveAspectRatio="xMidYMid meet">

<g transform="translate(0.000000,500.000000) scale(0.100000,-0.100000)"
fill="#000000" stroke="none">
<path d="M192 2923 c-18 -9 -44 -35 -57 -58 -25 -41 -25 -45 -25 -281 0 -229
1 -241 23 -278 12 -21 38 -47 57 -57 33 -18 86 -19 1245 -19 1190 0 1211 0
1243 20 18 11 41 34 52 52 18 31 20 51 20 283 0 232 -2 252 -20 283 -11 18
-34 41 -52 52 -32 20 -53 20 -1243 20 -1096 0 -1213 -2 -1243 -17z m1981 -119
c123 -42 173 -198 102 -319 -55 -95 -206 -124 -303 -60 -82 54 -115 179 -73
270 48 104 159 148 274 109z m-1338 -190 c44 -107 82 -200 83 -205 2 -5 -10
-9 -28 -9 -27 0 -33 5 -50 45 l-20 46 -96 -3 -97 -3 -16 -42 c-14 -39 -18 -43
-48 -43 -30 0 -32 2 -24 23 18 46 153 372 158 380 2 4 16 7 31 7 26 0 31 -10
107 -196z m245 61 c0 -189 18 -225 109 -225 79 0 101 51 101 238 l0 122 31 0
31 0 -4 -153 c-3 -129 -7 -158 -23 -186 -34 -58 -68 -76 -140 -76 -72 0 -106
18 -140 76 -17 29 -20 56 -23 187 l-4 152 31 0 31 0 0 -135z m710 105 l0 -30
-70 0 -70 0 0 -175 0 -175 -30 0 -30 0 0 175 0 175 -65 0 -65 0 0 30 0 30 165
0 165 0 0 -30z"/>
<path d="M2023 2739 c-79 -39 -107 -157 -55 -229 42 -57 136 -77 202 -42 40
21 80 89 80 136 0 53 -37 113 -84 135 -54 26 -90 26 -143 0z"/>
<path d="M688 2631 l-36 -91 74 0 74 0 -21 53 c-11 28 -28 70 -37 91 l-17 39
-37 -92z"/>
<path d="M4145 2801 c-74 -34 -115 -102 -115 -188 1 -121 87 -203 215 -203 94
0 161 39 196 115 36 77 16 188 -42 242 -59 54 -177 70 -254 34z m171 -104 c20
-18 28 -35 32 -75 4 -47 2 -54 -26 -82 -25 -25 -38 -30 -77 -30 -38 0 -52 5
-76 29 -24 24 -29 38 -29 76 0 38 5 52 29 76 39 38 106 41 147 6z"/>
<path d="M2840 2609 l0 -202 113 5 c133 6 189 26 233 83 23 31 29 50 32 105 5
84 -19 137 -80 177 -39 26 -49 28 -170 31 l-128 4 0 -203z m215 97 c18 -8 38
-23 44 -34 14 -26 14 -87 1 -113 -15 -27 -63 -49 -110 -49 l-40 0 0 105 0 105
35 0 c20 0 51 -6 70 -14z"/>
<path d="M3290 2610 l0 -200 140 0 140 0 0 45 0 45 -85 0 -85 0 0 35 0 35 75
0 75 0 0 45 0 45 -75 0 -75 0 0 35 0 35 85 0 85 0 0 40 0 40 -140 0 -140 0 0
-200z"/>
<path d="M3650 2610 l0 -200 54 0 55 0 3 53 3 52 65 5 c75 6 100 18 131 61 31
44 30 125 -1 169 -34 48 -73 60 -200 60 l-110 0 0 -200z m210 95 c7 -8 13 -26
13 -40 0 -39 -20 -55 -69 -55 l-44 0 0 55 0 55 44 0 c27 0 48 -6 56 -15z"/>
<path d="M4510 2760 l0 -50 60 0 60 0 0 -150 0 -150 55 0 55 0 0 150 0 150 65
0 65 0 0 50 0 50 -180 0 -180 0 0 -50z"/>
</g>
</svg>
